<?xml version="1.0" standalone="no"?>
<!DOCTYPE svg PUBLIC "-//W3C//DTD SVG 20010904//EN"
 "http://www.w3.org/TR/2001/REC-SVG-20010904/DTD/svg10.dtd">
<svg version="1.0" xmlns="http://www.w3.org/2000/svg"
 width="640.000000pt" height="110.000000pt" viewBox="0 0 640.000000 110.000000"
 preserveAspectRatio="xMidYMid meet">

<g transform="translate(0.000000,110.000000) scale(0.100000,-0.100000)"
fill="#000000" stroke="none">
<path d="M790 1020 c0 -5 -13 -10 -30 -10 -16 0 -30 -4 -30 -10 0 -5 -7 -10
-16 -10 -19 0 -64 -48 -64 -68 0 -7 -7 -15 -15 -18 -10 -4 -15 -20 -15 -46 0
-31 7 -47 28 -68 49 -49 62 -70 62 -100 0 -17 4 -30 9 -30 6 0 7 -16 4 -35 -4
-23 -2 -35 6 -35 25 0 8 -22 -50 -61 -34 -22 -74 -42 -90 -43 -16 -1 -32 -5
-36 -9 -4 -4 4 -6 17 -5 30 4 38 -23 15 -46 -24 -23 -35 -20 -35 11 0 26 -1
26 -14 7 -13 -16 -15 -17 -21 -3 -3 9 -18 16 -35 16 -27 0 -29 -3 -24 -26 4
-14 12 -35 19 -47 12 -18 9 -25 -19 -59 -25 -30 -37 -37 -55 -32 -19 5 -25 -1
-39 -31 -10 -23 -17 -31 -19 -21 -4 16 -119 63 -134 53 -5 -3 -9 -14 -9 -25 0
-11 -4 -18 -9 -15 -11 7 -31 -38 -31 -69 0 -14 -3 -25 -8 -25 -4 0 -13 -9 -20
-21 -10 -16 -10 -24 -1 -35 6 -7 16 -11 21 -8 5 3 17 -1 27 -10 17 -16 19 -14
25 25 5 33 28 91 41 107 2 2 21 -10 43 -25 39 -29 40 -29 26 -62 -16 -39 -17
-44 -5 -36 5 3 17 -2 26 -12 14 -14 18 -14 26 -2 5 8 9 21 9 29 1 40 17 44 63
17 24 -15 47 -23 51 -20 3 3 6 -1 6 -9 0 -28 -26 -40 -74 -33 -28 5 -46 3 -46
-3 0 -15 249 -37 263 -23 8 8 3 10 -21 5 -37 -8 -102 19 -102 42 0 11 10 13
54 8 47 -6 55 -4 64 13 19 35 92 264 91 286 0 12 2 32 6 43 5 17 2 23 -18 28
-31 7 -57 -2 -57 -20 0 -8 -7 -14 -16 -14 -13 0 -14 3 -5 13 7 9 7 17 0 24 -7
7 10 23 54 51 35 23 67 42 72 42 4 0 18 -11 30 -25 21 -25 21 -35 24 -278 1
-139 4 -254 7 -256 2 -2 4 113 4 256 0 245 1 261 20 283 l20 23 60 -39 c61
-40 68 -48 50 -59 -8 -5 -7 -11 1 -21 9 -11 8 -14 -4 -14 -8 0 -17 7 -21 15
-3 9 -12 12 -22 8 -12 -5 -15 -3 -9 6 6 10 2 11 -16 6 -33 -10 -34 -12 -21
-40 6 -14 7 -27 2 -30 -5 -3 14 -73 42 -156 l51 -150 55 3 c33 2 57 -1 59 -8
6 -18 -72 -47 -104 -40 -21 6 -25 5 -17 -4 9 -9 39 -9 120 -1 59 6 116 11 126
11 10 0 18 5 18 11 0 7 -16 9 -47 5 -27 -4 -53 -3 -59 1 -13 10 -27 46 -15 39
5 -3 29 5 53 19 23 14 46 25 50 25 3 0 10 -15 13 -32 10 -47 13 -50 39 -33 12
8 26 12 29 8 12 -11 7 11 -8 37 -8 14 -14 28 -15 31 0 7 81 62 84 57 8 -12 36
-88 40 -110 6 -27 26 -40 26 -17 0 6 9 9 20 6 10 -3 25 2 31 9 10 12 7 20 -15
43 -14 15 -24 30 -20 34 3 3 1 21 -6 41 -8 26 -15 33 -27 29 -12 -5 -15 -2
-11 9 4 9 2 20 -4 26 -14 14 -128 -25 -128 -44 0 -8 -4 -14 -10 -14 -5 0 -10
7 -10 15 0 28 -22 52 -44 48 -15 -3 -31 6 -54 31 l-32 35 20 46 c11 26 20 48
20 50 0 9 -64 -3 -68 -13 -6 -18 -22 -14 -23 6 -1 17 -2 15 -15 -26 -3 -10 -8
-10 -25 -2 -17 9 -20 18 -15 41 3 17 1 29 -5 29 -15 0 -129 79 -129 90 0 6 7
10 15 10 9 0 15 9 15 21 0 22 -22 49 -39 49 -7 0 -11 24 -11 60 0 33 4 60 10
60 6 0 10 14 10 30 0 17 -4 30 -10 30 -5 0 -10 -13 -10 -30 0 -16 -4 -30 -10
-30 -5 0 -10 -26 -12 -57 -2 -46 -7 -59 -20 -61 -16 -3 -18 5 -18 57 0 34 -4
61 -10 61 -5 0 -10 14 -10 30 0 20 -5 30 -15 30 -10 0 -15 -10 -15 -30 0 -20
5 -30 15 -30 25 0 17 -113 -7 -118 -15 -3 -18 4 -18 32 0 20 -4 36 -10 36 -5
0 -10 5 -10 11 0 6 -13 24 -30 39 -23 22 -30 37 -30 67 0 39 19 93 33 93 4 0
7 7 7 15 0 8 9 15 20 15 11 0 20 5 20 10 0 6 14 10 30 10 17 0 30 5 30 10 0 6
9 10 20 10 11 0 20 -4 20 -10 0 -5 11 -10 25 -10 14 0 25 -4 25 -10 0 -5 8
-10 18 -10 20 0 52 -33 52 -55 0 -8 5 -15 10 -15 6 0 10 -21 10 -46 0 -40 -5
-50 -45 -90 -34 -33 -45 -51 -45 -75 0 -41 24 -33 28 9 2 18 7 32 13 32 5 0 9
5 9 11 0 6 14 24 30 39 25 23 30 36 30 74 0 25 -4 46 -10 46 -5 0 -10 9 -10
20 0 11 -4 20 -8 20 -5 0 -15 11 -22 25 -8 16 -22 25 -37 25 -13 0 -23 5 -23
10 0 6 -11 10 -25 10 -14 0 -25 5 -25 10 0 6 -9 10 -20 10 -11 0 -20 -4 -20
-10z m-100 -570 c0 -6 -13 -34 -30 -63 l-30 -52 3 39 c3 30 9 41 26 48 15 5
21 14 17 23 -3 8 -1 15 4 15 6 0 10 -5 10 -10z m265 -47 c-2 -7 -1 -13 3 -13
4 0 8 -11 8 -25 1 -14 0 -25 -1 -25 -3 0 -55 90 -55 95 0 2 11 -2 25 -8 14 -7
23 -18 20 -24z m-398 -2 c13 -13 25 -16 34 -10 19 12 32 11 24 -1 -3 -5 -1
-10 6 -10 10 0 10 -3 2 -11 -6 -6 -9 -18 -6 -27 5 -10 2 -13 -6 -8 -7 5 -11
17 -8 27 6 23 -11 24 -41 3 -22 -15 -23 -15 -16 10 5 20 2 26 -9 26 -9 0 -19
5 -22 10 -11 18 20 11 42 -9z m523 9 c-20 -13 -33 -13 -25 0 3 6 14 10 23 10
15 0 15 -2 2 -10z m-75 -20 c3 -5 1 -10 -5 -10 -6 0 -8 -5 -5 -10 4 -6 4 -19
0 -28 -7 -14 -9 -13 -15 8 -10 39 8 68 25 40z m48 -20 c4 -18 3 -19 -9 -9 -12
10 -13 9 -8 -5 8 -21 21 -20 33 1 9 17 11 16 30 -1 12 -11 21 -24 21 -29 0 -6
8 -19 17 -29 16 -18 16 -18 0 -12 -11 4 -19 0 -23 -10 -3 -9 -17 -16 -30 -16
-22 0 -23 -3 -14 -20 6 -11 20 -20 32 -20 27 0 21 -5 -14 -14 -20 -5 -28 -3
-28 7 0 17 -29 43 -55 50 -13 3 -7 5 14 6 l34 1 -26 25 c-24 25 -25 27 -10 65
17 41 27 44 36 10z m-346 3 c-33 -97 -43 -122 -52 -119 -17 6 -8 60 16 98 25
39 46 51 36 21z m244 -65 c11 -27 7 -58 -8 -58 -9 0 -53 110 -53 131 0 18 45
-37 61 -73z m-417 46 c5 -13 9 -14 21 -4 8 6 19 9 25 5 17 -10 12 -37 -12 -63
-15 -16 -17 -23 -8 -20 8 3 24 2 35 -3 17 -7 17 -8 -7 -8 -20 -1 -32 -9 -43
-32 -11 -20 -21 -29 -31 -25 -9 3 -21 6 -27 7 -7 1 -1 4 13 8 31 9 40 41 12
41 -11 0 -23 7 -26 16 -4 9 -13 14 -21 10 -13 -4 -12 -1 2 22 38 62 56 74 67
46z m-41 -188 c20 0 37 -4 37 -9 0 -14 -118 -3 -133 12 -10 11 -6 12 23 6 19
-5 52 -9 73 -9z m707 5 c0 -5 -10 -11 -22 -15 -37 -9 -108 -7 -108 4 0 6 10 8
23 5 12 -3 36 -1 52 4 40 12 55 13 55 2z"/>
<path d="M1050 301 c0 -5 5 -13 10 -16 6 -3 10 -2 10 4 0 5 -4 13 -10 16 -5 3
-10 2 -10 -4z"/>
<path d="M537 303 c-4 -3 -7 -11 -7 -17 0 -6 5 -5 12 2 6 6 9 14 7 17 -3 3 -9
2 -12 -2z"/>
<path d="M2400 1020 c0 -5 -13 -10 -30 -10 -16 0 -30 -4 -30 -10 0 -5 -7 -10
-16 -10 -19 0 -64 -48 -64 -68 0 -7 -7 -15 -15 -18 -10 -4 -15 -20 -15 -46 0
-31 7 -47 28 -68 49 -49 62 -70 62 -100 0 -17 4 -30 9 -30 6 0 7 -16 4 -35 -4
-23 -2 -35 6 -35 25 0 8 -22 -50 -61 -34 -22 -74 -42 -90 -43 -16 -1 -32 -5
-36 -9 -4 -4 4 -6 17 -5 30 4 38 -23 15 -46 -24 -23 -35 -20 -35 11 0 26 -1
26 -14 7 -13 -16 -15 -17 -21 -3 -3 9 -18 16 -35 16 -27 0 -29 -3 -24 -26 4
-14 12 -35 19 -47 12 -18 9 -25 -19 -59 -25 -30 -37 -37 -55 -32 -19 5 -25 -1
-39 -31 -10 -23 -17 -31 -19 -21 -4 16 -119 63 -134 53 -5 -3 -9 -14 -9 -25 0
-11 -4 -18 -9 -15 -11 7 -31 -38 -31 -69 0 -14 -3 -25 -8 -25 -4 0 -13 -9 -20
-21 -10 -16 -10 -24 -1 -35 6 -7 16 -11 21 -8 5 3 17 -1 27 -10 17 -16 19 -14
25 25 5 33 28 91 41 107 2 2 21 -10 43 -25 39 -29 40 -29 26 -62 -16 -39 -17
-44 -5 -36 5 3 17 -2 26 -12 14 -14 18 -14 26 -2 5 8 9 21 9 29 1 40 17 44 63
17 24 -15 47 -23 51 -20 3 3 6 -1 6 -9 0 -28 -26 -40 -74 -33 -28 5 -46 3 -46
-3 0 -15 249 -37 263 -23 8 8 3 10 -21 5 -37 -8 -102 19 -102 42 0 11 10 13
54 8 47 -6 55 -4 64 13 19 35 92 264 91 286 0 12 2 32 6 43 5 17 2 23 -18 28
-31 7 -57 -2 -57 -20 0 -8 -7 -14 -16 -14 -13 0 -14 3 -5 13 7 9 7 17 0 24 -7
7 10 23 54 51 35 23 67 42 72 42 4 0 18 -11 30 -25 21 -25 21 -35 24 -278 1
-139 4 -254 7 -256 2 -2 4 113 4 256 0 245 1 261 20 283 l20 23 60 -39 c61
-40 68 -48 50 -59 -8 -5 -7 -11 1 -21 9 -11 8 -14 -4 -14 -8 0 -18 8 -21 17
-5 12 -10 13 -17 6 -14 -14 -3 -33 18 -33 9 0 13 -6 9 -15 -3 -8 -2 -15 2 -15
4 0 8 -11 8 -25 1 -14 0 -25 -1 -25 -11 0 -55 98 -51 113 3 14 0 17 -17 11
-31 -9 -32 -11 -19 -39 6 -14 7 -27 2 -30 -5 -3 14 -73 42 -156 l51 -150 55 3
c33 2 57 -1 59 -8 6 -18 -72 -47 -104 -40 -21 6 -25 5 -17 -4 9 -9 39 -9 120
-1 59 6 116 11 126 11 10 0 18 5 18 11 0 7 -16 9 -47 5 -27 -4 -53 -3 -59 1
-13 10 -27 46 -15 39 5 -3 29 5 53 19 23 14 46 25 50 25 3 0 10 -15 13 -32 10
-47 13 -50 39 -33 12 8 26 12 29 8 12 -11 7 11 -8 37 -8 14 -14 28 -15 31 0 7
81 62 84 57 8 -12 36 -88 40 -110 6 -27 26 -40 26 -17 0 6 9 9 20 6 10 -3 25
2 31 9 10 12 7 20 -15 43 -14 15 -24 30 -20 34 3 3 1 21 -6 41 -8 26 -15 33
-27 29 -12 -5 -15 -2 -11 9 4 9 2 20 -4 26 -14 14 -128 -25 -128 -44 0 -8 -4
-14 -10 -14 -5 0 -10 7 -10 15 0 28 -22 52 -44 48 -15 -3 -31 6 -54 31 l-32
35 20 46 c11 26 20 48 20 50 0 9 -64 -3 -68 -13 -6 -18 -22 -14 -23 6 -1 17
-2 15 -15 -26 -3 -10 -8 -10 -25 -2 -17 9 -20 18 -15 41 3 17 1 29 -5 29 -15
0 -129 79 -129 90 0 6 7 10 15 10 9 0 15 9 15 21 0 22 -22 49 -39 49 -7 0 -11
24 -11 60 0 33 4 60 10 60 6 0 10 14 10 30 0 17 -4 30 -10 30 -5 0 -10 -13
-10 -30 0 -16 -4 -30 -10 -30 -5 0 -10 -26 -12 -57 -2 -46 -7 -59 -20 -61 -16
-3 -18 5 -18 57 0 34 -4 61 -10 61 -5 0 -10 14 -10 30 0 20 -5 30 -15 30 -10
0 -15 -10 -15 -30 0 -20 5 -30 15 -30 25 0 17 -113 -7 -118 -15 -3 -18 4 -18
32 0 20 -4 36 -10 36 -5 0 -10 5 -10 11 0 6 -13 24 -30 39 -23 22 -30 37 -30
67 0 39 19 93 33 93 4 0 7 7 7 15 0 8 9 15 20 15 11 0 20 5 20 10 0 6 14 10
30 10 17 0 30 5 30 10 0 6 9 10 20 10 11 0 20 -4 20 -10 0 -5 11 -10 25 -10
14 0 25 -4 25 -10 0 -5 8 -10 18 -10 20 0 52 -33 52 -55 0 -8 5 -15 10 -15 6
0 10 -21 10 -46 0 -38 -5 -51 -30 -74 -16 -15 -30 -33 -30 -39 0 -6 -7 -11
-15 -11 -11 0 -15 -11 -15 -36 0 -45 24 -42 28 4 2 18 7 32 13 32 5 0 9 5 9
11 0 6 14 24 30 39 25 23 30 36 30 74 0 25 -4 46 -10 46 -5 0 -10 9 -10 20 0
11 -4 20 -8 20 -5 0 -15 11 -22 25 -8 16 -22 25 -37 25 -13 0 -23 5 -23 10 0
6 -11 10 -25 10 -14 0 -25 5 -25 10 0 6 -9 10 -20 10 -11 0 -20 -4 -20 -10z
m-100 -579 c0 -11 -5 -23 -10 -26 -6 -3 -19 -23 -30 -43 l-19 -37 3 39 c2 30
8 41 25 48 15 5 21 14 17 23 -3 8 -1 15 4 15 6 0 10 -9 10 -19z m-133 -40 c13
-13 25 -16 34 -10 19 12 32 11 24 -1 -3 -5 -1 -10 6 -10 10 0 10 -3 2 -11 -6
-6 -9 -18 -6 -27 5 -10 2 -13 -6 -8 -7 5 -11 17 -8 27 6 23 -11 24 -41 3 -22
-15 -23 -15 -16 10 5 20 2 26 -9 26 -9 0 -19 5 -22 10 -11 18 20 11 42 -9z
m523 9 c-20 -13 -33 -13 -25 0 3 6 14 10 23 10 15 0 15 -2 2 -10z m-75 -20 c3
-5 1 -10 -5 -10 -6 0 -8 -5 -5 -10 4 -6 4 -19 0 -28 -7 -14 -9 -13 -15 8 -10
39 8 68 25 40z m48 -20 c4 -18 3 -19 -9 -9 -12 10 -13 9 -8 -5 8 -21 21 -20
33 1 7 14 12 15 25 4 24 -20 57 -81 40 -74 -7 3 -17 -2 -20 -11 -3 -9 -17 -16
-30 -16 -22 0 -23 -3 -14 -20 6 -11 20 -20 32 -20 27 0 21 -5 -14 -14 -20 -5
-28 -3 -28 7 0 17 -29 43 -55 50 -13 3 -7 5 14 6 l34 1 -26 25 c-24 25 -25 27
-10 65 17 41 27 44 36 10z m-346 3 c-24 -77 -44 -122 -52 -119 -17 6 -8 67 14
90 12 12 21 28 21 34 0 7 5 12 11 12 6 0 9 -8 6 -17z m244 -65 c11 -27 7 -58
-8 -58 -9 0 -53 110 -53 131 0 18 45 -37 61 -73z m-417 46 c5 -13 9 -14 21 -4
8 6 19 9 25 5 17 -10 12 -37 -12 -63 -15 -16 -17 -23 -8 -20 8 3 24 2 35 -3
17 -7 17 -8 -7 -8 -20 -1 -32 -9 -43 -32 -11 -20 -21 -29 -31 -25 -9 3 -21 6
-27 7 -7 1 -1 4 13 8 31 9 40 41 12 41 -11 0 -23 7 -26 16 -4 9 -13 14 -21 10
-13 -4 -12 -1 2 22 38 62 56 74 67 46z m-41 -188 c20 0 37 -4 37 -9 0 -14
-118 -3 -133 12 -10 11 -6 12 23 6 19 -5 52 -9 73 -9z m707 5 c0 -5 -10 -11
-22 -15 -36 -9 -108 -7 -108 4 0 5 12 7 28 4 15 -3 38 -1 52 5 32 12 50 13 50
2z"/>
<path d="M2660 301 c0 -5 5 -13 10 -16 6 -3 10 -2 10 4 0 5 -4 13 -10 16 -5 3
-10 2 -10 -4z"/>
<path d="M2147 303 c-4 -3 -7 -11 -7 -17 0 -6 5 -5 12 2 6 6 9 14 7 17 -3 3
-9 2 -12 -2z"/>
<path d="M3990 1020 c0 -5 -13 -10 -30 -10 -16 0 -30 -4 -30 -10 0 -5 -7 -10
-16 -10 -19 0 -64 -48 -64 -68 0 -7 -7 -15 -15 -18 -10 -4 -15 -20 -15 -46 0
-31 7 -47 28 -68 49 -49 62 -70 62 -100 0 -17 4 -30 9 -30 6 0 7 -16 4 -35 -4
-23 -2 -35 6 -35 25 0 8 -22 -50 -61 -34 -22 -74 -42 -90 -43 -16 -1 -32 -5
-36 -9 -4 -4 4 -6 17 -5 30 4 38 -23 15 -46 -24 -23 -35 -20 -35 11 0 26 -1
26 -14 7 -13 -16 -15 -17 -21 -3 -3 9 -18 16 -35 16 -27 0 -29 -3 -24 -26 4
-14 12 -35 19 -47 12 -18 9 -25 -19 -59 -25 -30 -37 -37 -55 -32 -19 5 -25 -1
-39 -31 -10 -23 -17 -31 -19 -21 -4 16 -119 63 -134 53 -5 -3 -9 -14 -9 -25 0
-11 -4 -18 -9 -15 -11 7 -31 -38 -31 -69 0 -14 -3 -25 -8 -25 -4 0 -13 -9 -20
-21 -10 -16 -10 -24 -1 -35 6 -7 16 -11 21 -8 5 3 17 -1 27 -10 17 -16 19 -14
25 25 5 33 28 91 41 107 2 2 21 -10 43 -25 39 -29 40 -29 26 -62 -16 -39 -17
-44 -5 -36 5 3 17 -2 26 -12 14 -14 18 -14 26 -2 5 8 9 21 9 29 1 40 17 44 63
17 24 -15 47 -23 51 -20 3 3 6 -1 6 -9 0 -28 -26 -40 -74 -33 -28 5 -46 3 -46
-3 0 -15 249 -37 263 -23 8 8 3 10 -21 5 -37 -8 -102 19 -102 42 0 11 10 13
54 8 47 -6 55 -4 64 13 19 35 92 264 91 286 0 12 2 32 6 43 5 17 2 23 -18 28
-31 7 -57 -2 -57 -20 0 -8 -7 -14 -16 -14 -13 0 -14 3 -5 13 7 9 7 17 0 24 -7
7 10 23 54 51 35 23 67 42 72 42 4 0 18 -11 30 -25 21 -25 21 -35 24 -278 1
-139 4 -254 7 -256 2 -2 4 113 4 256 0 245 1 261 20 283 l20 23 60 -39 c61
-40 68 -48 50 -59 -8 -5 -7 -11 1 -21 9 -11 8 -14 -4 -14 -8 0 -17 7 -21 15
-3 9 -12 12 -22 8 -12 -5 -15 -3 -9 6 6 10 2 11 -16 6 -33 -10 -34 -12 -21
-40 6 -14 7 -27 2 -30 -5 -3 14 -73 42 -156 l51 -150 55 3 c33 2 57 -1 59 -8
6 -18 -72 -47 -104 -40 -21 6 -25 5 -17 -4 9 -9 39 -9 120 -1 59 6 116 11 126
11 10 0 18 5 18 11 0 7 -16 9 -47 5 -27 -4 -53 -3 -59 1 -13 10 -27 46 -15 39
5 -3 29 5 53 19 23 14 46 25 50 25 3 0 10 -15 13 -32 10 -47 13 -50 39 -33 12
8 26 12 29 8 12 -11 7 11 -8 37 -8 14 -14 28 -15 31 0 7 81 62 84 57 8 -12 36
-88 40 -110 6 -27 26 -40 26 -17 0 6 9 9 20 6 10 -3 25 2 31 9 10 12 7 20 -15
43 -14 15 -24 30 -20 34 3 3 1 21 -6 41 -8 26 -15 33 -27 29 -12 -5 -15 -2
-11 9 4 9 2 20 -4 26 -14 14 -128 -25 -128 -44 0 -8 -4 -14 -10 -14 -5 0 -10
7 -10 15 0 28 -22 52 -44 48 -15 -3 -31 6 -54 31 l-32 35 20 46 c11 26 20 48
20 50 0 9 -64 -3 -68 -13 -6 -18 -22 -14 -23 6 -1 17 -2 15 -15 -26 -3 -10 -8
-10 -25 -2 -17 9 -20 18 -15 41 3 17 1 29 -5 29 -15 0 -129 79 -129 90 0 6 7
10 15 10 9 0 15 9 15 21 0 22 -22 49 -39 49 -7 0 -11 24 -11 60 0 33 4 60 10
60 6 0 10 14 10 30 0 17 -4 30 -10 30 -5 0 -10 -13 -10 -30 0 -16 -4 -30 -10
-30 -5 0 -10 -26 -12 -57 -2 -46 -7 -59 -20 -61 -16 -3 -18 5 -18 57 0 34 -4
61 -10 61 -5 0 -10 14 -10 30 0 20 -5 30 -15 30 -10 0 -15 -10 -15 -30 0 -20
5 -30 15 -30 25 0 17 -113 -7 -118 -15 -3 -18 4 -18 32 0 20 -4 36 -10 36 -5
0 -10 5 -10 11 0 6 -13 24 -30 39 -23 22 -30 37 -30 67 0 39 19 93 33 93 4 0
7 7 7 15 0 8 9 15 20 15 11 0 20 5 20 10 0 6 14 10 30 10 17 0 30 5 30 10 0 6
9 10 20 10 11 0 20 -4 20 -10 0 -5 11 -10 25 -10 14 0 25 -4 25 -10 0 -5 8
-10 18 -10 20 0 52 -33 52 -55 0 -8 5 -15 10 -15 6 0 10 -21 10 -46 0 -40 -5
-50 -45 -90 -34 -33 -45 -51 -45 -75 0 -41 24 -33 28 9 2 18 7 32 13 32 5 0 9
5 9 11 0 6 14 24 30 39 25 23 30 36 30 74 0 25 -4 46 -10 46 -5 0 -10 9 -10
20 0 11 -4 20 -8 20 -5 0 -15 11 -22 25 -8 16 -22 25 -37 25 -13 0 -23 5 -23
10 0 6 -11 10 -25 10 -14 0 -25 5 -25 10 0 6 -9 10 -20 10 -11 0 -20 -4 -20
-10z m-100 -570 c0 -6 -13 -34 -30 -63 l-30 -52 3 39 c3 30 9 41 26 48 15 5
21 14 17 23 -3 8 -1 15 4 15 6 0 10 -5 10 -10z m265 -47 c-2 -7 -1 -13 3 -13
4 0 8 -11 8 -25 1 -14 0 -25 -1 -25 -3 0 -55 90 -55 95 0 2 11 -2 25 -8 14 -7
23 -18 20 -24z m-398 -2 c13 -13 25 -16 34 -10 19 12 32 11 24 -1 -3 -5 -1
-10 6 -10 10 0 10 -3 2 -11 -6 -6 -9 -18 -6 -27 5 -10 2 -13 -6 -8 -7 5 -11
17 -8 27 6 23 -11 24 -41 3 -22 -15 -23 -15 -16 10 5 20 2 26 -9 26 -9 0 -19
5 -22 10 -11 18 20 11 42 -9z m523 9 c-20 -13 -33 -13 -25 0 3 6 14 10 23 10
15 0 15 -2 2 -10z m-75 -20 c3 -5 1 -10 -5 -10 -6 0 -8 -5 -5 -10 4 -6 4 -19
0 -28 -7 -14 -9 -13 -15 8 -10 39 8 68 25 40z m48 -20 c4 -18 3 -19 -9 -9 -12
10 -13 9 -8 -5 8 -21 21 -20 33 1 9 17 11 16 30 -1 12 -11 21 -24 21 -29 0 -6
8 -19 17 -29 16 -18 16 -18 0 -12 -11 4 -19 0 -23 -10 -3 -9 -17 -16 -30 -16
-22 0 -23 -3 -14 -20 6 -11 20 -20 32 -20 27 0 21 -5 -14 -14 -20 -5 -28 -3
-28 7 0 17 -29 43 -55 50 -13 3 -7 5 14 6 l34 1 -26 25 c-24 25 -25 27 -10 65
17 41 27 44 36 10z m-346 3 c-33 -97 -43 -122 -52 -119 -17 6 -8 60 16 98 25
39 46 51 36 21z m244 -65 c11 -27 7 -58 -8 -58 -9 0 -53 110 -53 131 0 18 45
-37 61 -73z m-417 46 c5 -13 9 -14 21 -4 8 6 19 9 25 5 17 -10 12 -37 -12 -63
-15 -16 -17 -23 -8 -20 8 3 24 2 35 -3 17 -7 17 -8 -7 -8 -20 -1 -32 -9 -43
-32 -11 -20 -21 -29 -31 -25 -9 3 -21 6 -27 7 -7 1 -1 4 13 8 31 9 40 41 12
41 -11 0 -23 7 -26 16 -4 9 -13 14 -21 10 -13 -4 -12 -1 2 22 38 62 56 74 67
46z m-41 -188 c20 0 37 -4 37 -9 0 -14 -118 -3 -133 12 -10 11 -6 12 23 6 19
-5 52 -9 73 -9z m707 5 c0 -5 -10 -11 -22 -15 -37 -9 -108 -7 -108 4 0 6 10 8
23 5 12 -3 36 -1 52 4 40 12 55 13 55 2z"/>
<path d="M4250 301 c0 -5 5 -13 10 -16 6 -3 10 -2 10 4 0 5 -4 13 -10 16 -5 3
-10 2 -10 -4z"/>
<path d="M3737 303 c-4 -3 -7 -11 -7 -17 0 -6 5 -5 12 2 6 6 9 14 7 17 -3 3
-9 2 -12 -2z"/>
<path d="M5600 1020 c0 -5 -13 -10 -30 -10 -16 0 -30 -4 -30 -10 0 -5 -7 -10
-16 -10 -19 0 -64 -48 -64 -68 0 -7 -7 -15 -15 -18 -10 -4 -15 -20 -15 -46 0
-31 7 -47 28 -68 49 -49 62 -70 62 -100 0 -17 4 -30 9 -30 6 0 7 -16 4 -35 -4
-23 -2 -35 6 -35 25 0 8 -22 -50 -61 -34 -22 -74 -42 -90 -43 -16 -1 -32 -5
-36 -9 -4 -4 4 -6 17 -5 30 4 38 -23 15 -46 -24 -23 -35 -20 -35 11 0 26 -1
26 -14 7 -13 -16 -15 -17 -21 -3 -3 9 -18 16 -35 16 -27 0 -29 -3 -24 -26 4
-14 12 -35 19 -47 12 -18 9 -25 -19 -59 -25 -30 -37 -37 -55 -32 -19 5 -25 -1
-39 -31 -10 -23 -17 -31 -19 -21 -4 16 -119 63 -134 53 -5 -3 -9 -14 -9 -25 0
-11 -4 -18 -9 -15 -11 7 -31 -38 -31 -69 0 -14 -3 -25 -8 -25 -4 0 -13 -9 -20
-21 -10 -16 -10 -24 -1 -35 6 -7 16 -11 21 -8 5 3 17 -1 27 -10 17 -16 19 -14
25 25 5 33 28 91 41 107 2 2 21 -10 43 -25 39 -29 40 -29 26 -62 -16 -39 -17
-44 -5 -36 5 3 17 -2 26 -12 14 -14 18 -14 26 -2 5 8 9 21 9 29 1 40 17 44 63
17 24 -15 47 -23 51 -20 3 3 6 -1 6 -9 0 -28 -26 -40 -74 -33 -28 5 -46 3 -46
-3 0 -15 249 -37 263 -23 8 8 3 10 -21 5 -37 -8 -102 19 -102 42 0 11 10 13
54 8 47 -6 55 -4 64 13 19 35 92 264 91 286 0 12 2 32 6 43 5 17 2 23 -18 28
-31 7 -57 -2 -57 -20 0 -8 -7 -14 -16 -14 -13 0 -14 3 -5 13 7 9 7 17 0 24 -7
7 10 23 54 51 35 23 67 42 72 42 4 0 18 -11 30 -25 21 -25 21 -35 24 -278 1
-139 4 -254 7 -256 2 -2 4 113 4 256 0 245 1 261 20 283 l20 23 60 -39 c61
-40 68 -48 50 -59 -8 -5 -7 -11 1 -21 9 -11 8 -14 -4 -14 -8 0 -18 8 -21 17
-5 12 -10 13 -17 6 -14 -14 -3 -33 18 -33 9 0 13 -6 9 -15 -3 -8 -2 -15 2 -15
4 0 8 -11 8 -25 1 -14 0 -25 -1 -25 -11 0 -55 98 -51 113 3 14 0 17 -17 11
-31 -9 -32 -11 -19 -39 6 -14 7 -27 2 -30 -5 -3 14 -73 42 -156 l51 -150 55 3
c33 2 57 -1 59 -8 6 -18 -72 -47 -104 -40 -21 6 -25 5 -17 -4 9 -9 39 -9 120
-1 59 6 116 11 126 11 10 0 18 5 18 11 0 7 -16 9 -47 5 -27 -4 -53 -3 -59 1
-13 10 -27 46 -15 39 5 -3 29 5 53 19 23 14 46 25 50 25 3 0 10 -15 13 -32 10
-47 13 -50 39 -33 12 8 26 12 29 8 12 -11 7 11 -8 37 -8 14 -14 28 -15 31 0 7
81 62 84 57 8 -12 36 -88 40 -110 6 -27 26 -40 26 -17 0 6 9 9 20 6 10 -3 25
2 31 9 10 12 7 20 -15 43 -14 15 -24 30 -20 34 3 3 1 21 -6 41 -8 26 -15 33
-27 29 -12 -5 -15 -2 -11 9 4 9 2 20 -4 26 -14 14 -128 -25 -128 -44 0 -8 -4
-14 -10 -14 -5 0 -10 7 -10 15 0 28 -22 52 -44 48 -15 -3 -31 6 -54 31 l-32
35 20 46 c11 26 20 48 20 50 0 9 -64 -3 -68 -13 -6 -18 -22 -14 -23 6 -1 17
-2 15 -15 -26 -3 -10 -8 -10 -25 -2 -17 9 -20 18 -15 41 3 17 1 29 -5 29 -15
0 -129 79 -129 90 0 6 7 10 15 10 9 0 15 9 15 21 0 22 -22 49 -39 49 -7 0 -11
24 -11 60 0 33 4 60 10 60 6 0 10 14 10 30 0 17 -4 30 -10 30 -5 0 -10 -13
-10 -30 0 -16 -4 -30 -10 -30 -5 0 -10 -26 -12 -57 -2 -46 -7 -59 -20 -61 -16
-3 -18 5 -18 57 0 34 -4 61 -10 61 -5 0 -10 14 -10 30 0 20 -5 30 -15 30 -10
0 -15 -10 -15 -30 0 -20 5 -30 15 -30 25 0 17 -113 -7 -118 -15 -3 -18 4 -18
32 0 20 -4 36 -10 36 -5 0 -10 5 -10 11 0 6 -13 24 -30 39 -23 22 -30 37 -30
67 0 39 19 93 33 93 4 0 7 7 7 15 0 8 9 15 20 15 11 0 20 5 20 10 0 6 14 10
30 10 17 0 30 5 30 10 0 6 9 10 20 10 11 0 20 -4 20 -10 0 -5 11 -10 25 -10
14 0 25 -4 25 -10 0 -5 8 -10 18 -10 20 0 52 -33 52 -55 0 -8 5 -15 10 -15 6
0 10 -21 10 -46 0 -38 -5 -51 -30 -74 -16 -15 -30 -33 -30 -39 0 -6 -7 -11
-15 -11 -11 0 -15 -11 -15 -36 0 -45 24 -42 28 4 2 18 7 32 13 32 5 0 9 5 9
11 0 6 14 24 30 39 25 23 30 36 30 74 0 25 -4 46 -10 46 -5 0 -10 9 -10 20 0
11 -4 20 -8 20 -5 0 -15 11 -22 25 -8 16 -22 25 -37 25 -13 0 -23 5 -23 10 0
6 -11 10 -25 10 -14 0 -25 5 -25 10 0 6 -9 10 -20 10 -11 0 -20 -4 -20 -10z
m-100 -579 c0 -11 -5 -23 -10 -26 -6 -3 -19 -23 -30 -43 l-19 -37 3 39 c2 30
8 41 25 48 15 5 21 14 17 23 -3 8 -1 15 4 15 6 0 10 -9 10 -19z m-133 -40 c13
-13 25 -16 34 -10 19 12 32 11 24 -1 -3 -5 -1 -10 6 -10 10 0 10 -3 2 -11 -6
-6 -9 -18 -6 -27 5 -10 2 -13 -6 -8 -7 5 -11 17 -8 27 6 23 -11 24 -41 3 -22
-15 -23 -15 -16 10 5 20 2 26 -9 26 -9 0 -19 5 -22 10 -11 18 20 11 42 -9z
m523 9 c-20 -13 -33 -13 -25 0 3 6 14 10 23 10 15 0 15 -2 2 -10z m-75 -20 c3
-5 1 -10 -5 -10 -6 0 -8 -5 -5 -10 4 -6 4 -19 0 -28 -7 -14 -9 -13 -15 8 -10
39 8 68 25 40z m48 -20 c4 -18 3 -19 -9 -9 -12 10 -13 9 -8 -5 8 -21 21 -20
33 1 7 14 12 15 25 4 24 -20 57 -81 40 -74 -7 3 -17 -2 -20 -11 -3 -9 -17 -16
-30 -16 -22 0 -23 -3 -14 -20 6 -11 20 -20 32 -20 27 0 21 -5 -14 -14 -20 -5
-28 -3 -28 7 0 17 -29 43 -55 50 -13 3 -7 5 14 6 l34 1 -26 25 c-24 25 -25 27
-10 65 17 41 27 44 36 10z m-346 3 c-24 -77 -44 -122 -52 -119 -17 6 -8 67 14
90 12 12 21 28 21 34 0 7 5 12 11 12 6 0 9 -8 6 -17z m244 -65 c11 -27 7 -58
-8 -58 -9 0 -53 110 -53 131 0 18 45 -37 61 -73z m-417 46 c5 -13 9 -14 21 -4
8 6 19 9 25 5 17 -10 12 -37 -12 -63 -15 -16 -17 -23 -8 -20 8 3 24 2 35 -3
17 -7 17 -8 -7 -8 -20 -1 -32 -9 -43 -32 -11 -20 -21 -29 -31 -25 -9 3 -21 6
-27 7 -7 1 -1 4 13 8 31 9 40 41 12 41 -11 0 -23 7 -26 16 -4 9 -13 14 -21 10
-13 -4 -12 -1 2 22 38 62 56 74 67 46z m-41 -188 c20 0 37 -4 37 -9 0 -14
-118 -3 -133 12 -10 11 -6 12 23 6 19 -5 52 -9 73 -9z m707 5 c0 -5 -10 -11
-22 -15 -36 -9 -108 -7 -108 4 0 5 12 7 28 4 15 -3 38 -1 52 5 32 12 50 13 50
2z"/>
<path d="M5860 301 c0 -5 5 -13 10 -16 6 -3 10 -2 10 4 0 5 -4 13 -10 16 -5 3
-10 2 -10 -4z"/>
<path d="M5347 303 c-4 -3 -7 -11 -7 -17 0 -6 5 -5 12 2 6 6 9 14 7 17 -3 3
-9 2 -12 -2z"/>
<path d="M1027 479 c7 -7 15 -10 18 -7 3 3 -2 9 -12 12 -14 6 -15 5 -6 -5z"/>
<path d="M2637 479 c7 -7 15 -10 18 -7 3 3 -2 9 -12 12 -14 6 -15 5 -6 -5z"/>
<path d="M4227 479 c7 -7 15 -10 18 -7 3 3 -2 9 -12 12 -14 6 -15 5 -6 -5z"/>
<path d="M5837 479 c7 -7 15 -10 18 -7 3 3 -2 9 -12 12 -14 6 -15 5 -6 -5z"/>
<path d="M66 38 c7 -11 106 -10 124 2 11 7 -6 10 -57 8 -39 -1 -70 -6 -67 -10z"/>
<path d="M245 39 c-22 -5 -13 -7 32 -8 34 0 64 3 67 7 6 9 -56 10 -99 1z"/>
<path d="M1247 38 c2 -5 33 -8 69 -8 35 0 64 3 64 8 0 4 -31 7 -69 7 -38 0
-67 -3 -64 -7z"/>
<path d="M1410 40 c18 -12 117 -13 124 -2 2 4 -28 8 -67 9 -49 2 -67 -1 -57
-7z"/>
<path d="M1676 38 c7 -11 106 -10 124 2 11 7 -6 10 -57 8 -39 -1 -70 -6 -67
-10z"/>
<path d="M1830 38 c0 -10 117 -10 123 0 3 4 -24 7 -59 7 -35 0 -64 -3 -64 -7z"/>
<path d="M2857 38 c2 -5 33 -8 69 -8 35 0 64 3 64 8 0 4 -31 7 -69 7 -38 0
-67 -3 -64 -7z"/>
<path d="M3020 40 c18 -12 117 -13 124 -2 2 4 -28 8 -67 9 -49 2 -67 -1 -57
-7z"/>
<path d="M3266 38 c7 -11 106 -10 124 2 11 7 -6 10 -57 8 -39 -1 -70 -6 -67
-10z"/>
<path d="M3445 39 c-22 -5 -13 -7 32 -8 34 0 64 3 67 7 6 9 -56 10 -99 1z"/>
<path d="M4447 38 c2 -5 33 -8 69 -8 35 0 64 3 64 8 0 4 -31 7 -69 7 -38 0
-67 -3 -64 -7z"/>
<path d="M4610 40 c18 -12 117 -13 124 -2 2 4 -28 8 -67 9 -49 2 -67 -1 -57
-7z"/>
<path d="M4876 38 c7 -11 106 -10 124 2 11 7 -6 10 -57 8 -39 -1 -70 -6 -67
-10z"/>
<path d="M5030 38 c0 -10 117 -10 123 0 3 4 -24 7 -59 7 -35 0 -64 -3 -64 -7z"/>
<path d="M6057 38 c2 -5 33 -8 69 -8 35 0 64 3 64 8 0 4 -31 7 -69 7 -38 0
-67 -3 -64 -7z"/>
<path d="M6220 40 c18 -12 117 -13 124 -2 2 4 -28 8 -67 9 -49 2 -67 -1 -57
-7z"/>
</g>
</svg>
